<?xml version="1.0" encoding="utf-8"?>
<!-- Generator: Adobe Illustrator 16.0.0, SVG Export Plug-In . SVG Version: 6.00 Build 0)  -->
<!DOCTYPE svg PUBLIC "-//W3C//DTD SVG 1.1//EN" "http://www.w3.org/Graphics/SVG/1.1/DTD/svg11.dtd">
<svg version="1.1" id="Capa_1" xmlns="http://www.w3.org/2000/svg" xmlns:xlink="http://www.w3.org/1999/xlink" x="0px" y="0px"
	 width="100px" height="100px" viewBox="0 0 100 100" enable-background="new 0 0 100 100" xml:space="preserve">
<path fill="#FFFFFF" d="M98.63,92.016c-0.164-0.165-0.748-0.986-1.361-4.647c-0.436-2.601-0.762-5.855-1.077-9.003
	c-1.248-12.44-2.957-29.477-12.312-44.304c-0.763-1.209-2.015-1.994-3.436-2.152c-0.172-0.02-0.348-0.029-0.52-0.029
	c-1.131,0-2.201,0.399-3.049,1.13l-3.868-3.868l15.414-15.415l-1.03,3.089c-0.271,0.817,0.17,1.7,0.986,1.972
	c0.164,0.054,0.33,0.08,0.494,0.08c0.652,0,1.261-0.413,1.479-1.066l3.118-9.354c0.003-0.006,0.003-0.013,0.005-0.019
	c0.006-0.015,0.01-0.03,0.015-0.045c0.005-0.019,0.009-0.037,0.014-0.056c0.005-0.018,0.009-0.036,0.013-0.054
	c0.003-0.011,0.006-0.022,0.008-0.034C93.525,8.221,93.527,8.2,93.53,8.18c0.003-0.02,0.007-0.04,0.009-0.061
	c0-0.008,0.002-0.017,0.002-0.024c0.002-0.021,0.002-0.043,0.004-0.064c0.001-0.021,0.002-0.043,0.002-0.064
	c0-0.007,0-0.014,0-0.021c0-0.021-0.001-0.042-0.002-0.064c-0.001-0.022-0.002-0.043-0.004-0.064c0-0.008-0.002-0.017-0.002-0.025
	c-0.002-0.02-0.006-0.04-0.009-0.06c-0.003-0.021-0.005-0.042-0.009-0.062c-0.002-0.011-0.005-0.022-0.008-0.034
	C93.51,7.618,93.506,7.6,93.501,7.582c-0.005-0.019-0.009-0.037-0.014-0.055c-0.005-0.016-0.009-0.03-0.015-0.045
	c-0.002-0.006-0.002-0.013-0.005-0.019c-0.003-0.011-0.009-0.021-0.012-0.03c-0.005-0.015-0.011-0.031-0.017-0.046
	c-0.006-0.017-0.014-0.034-0.021-0.051c-0.007-0.017-0.016-0.034-0.023-0.051c-0.005-0.012-0.01-0.024-0.016-0.036
	c-0.01-0.017-0.018-0.032-0.027-0.048c-0.01-0.018-0.02-0.036-0.03-0.053c-0.007-0.011-0.013-0.021-0.02-0.032
	c-0.009-0.014-0.019-0.028-0.028-0.042c-0.012-0.018-0.023-0.035-0.037-0.052c-0.008-0.011-0.018-0.023-0.026-0.034
	s-0.019-0.022-0.028-0.034c-0.013-0.016-0.026-0.032-0.04-0.047c-0.013-0.013-0.024-0.026-0.037-0.04
	c-0.005-0.005-0.009-0.01-0.013-0.015c-0.006-0.005-0.011-0.009-0.016-0.013c-0.013-0.013-0.025-0.025-0.039-0.038
	c-0.016-0.014-0.031-0.027-0.047-0.041c-0.011-0.009-0.021-0.019-0.033-0.027c-0.012-0.009-0.023-0.018-0.035-0.027
	c-0.018-0.013-0.034-0.025-0.052-0.037c-0.014-0.009-0.027-0.019-0.042-0.028c-0.01-0.007-0.021-0.013-0.032-0.02
	c-0.017-0.011-0.034-0.021-0.053-0.031c-0.017-0.009-0.032-0.018-0.048-0.026c-0.012-0.006-0.024-0.011-0.036-0.017
	c-0.017-0.008-0.034-0.016-0.052-0.023c-0.017-0.007-0.033-0.015-0.049-0.021c-0.016-0.006-0.031-0.011-0.047-0.016
	c-0.01-0.003-0.02-0.008-0.03-0.012c-0.007-0.002-0.013-0.003-0.02-0.005c-0.015-0.004-0.029-0.01-0.044-0.014
	c-0.019-0.005-0.037-0.009-0.056-0.014s-0.036-0.009-0.055-0.013c-0.011-0.002-0.022-0.005-0.032-0.007
	c-0.021-0.004-0.041-0.006-0.062-0.01c-0.02-0.003-0.041-0.006-0.061-0.008c-0.008,0-0.016-0.001-0.024-0.002
	c-0.021-0.002-0.043-0.003-0.064-0.004c-0.022-0.001-0.044-0.002-0.065-0.002c-0.006,0-0.013,0-0.02,0
	c-0.021,0-0.044,0.001-0.066,0.002c-0.021,0.001-0.043,0.002-0.063,0.004c-0.009,0.001-0.017,0.002-0.024,0.002
	c-0.02,0.002-0.041,0.005-0.061,0.008c-0.021,0.003-0.041,0.006-0.062,0.01c-0.011,0.002-0.022,0.004-0.033,0.007
	c-0.019,0.004-0.036,0.008-0.056,0.013c-0.018,0.004-0.036,0.009-0.055,0.014c-0.015,0.004-0.029,0.009-0.044,0.014
	c-0.007,0.002-0.013,0.003-0.02,0.005l-9.354,3.118c-0.817,0.272-1.259,1.155-0.986,1.972c0.217,0.653,0.826,1.066,1.479,1.066
	c0.164,0,0.33-0.026,0.493-0.081l3.089-1.03L70.801,26.937l-3.812-3.812c0.847-0.983,1.246-2.265,1.101-3.569
	c-0.159-1.421-0.944-2.673-2.154-3.437C51.157,6.801,34.172,5.099,21.769,3.856c-3.17-0.317-6.448-0.646-9.071-1.088
	C8.999,2.145,8.155,1.54,7.984,1.369C7.102,0.487,5.927,0,4.677,0S2.253,0.487,1.37,1.37S0,3.428,0,4.677
	c0,1.25,0.487,2.424,1.37,3.308c1.503,1.503,3.547,2.493,6.091,3.205l39.544,39.545L30.537,67.202h-7.15
	c-0.006,0-0.011,0.001-0.017,0.001c-0.045,0-0.091,0.002-0.136,0.006c-0.025,0.003-0.049,0.008-0.074,0.012
	c-0.025,0.004-0.051,0.006-0.077,0.012c-0.027,0.005-0.054,0.013-0.081,0.02c-0.022,0.006-0.044,0.01-0.067,0.018
	c-0.026,0.008-0.052,0.018-0.078,0.027c-0.022,0.008-0.044,0.015-0.066,0.023c-0.024,0.01-0.048,0.021-0.071,0.033
	c-0.022,0.011-0.045,0.021-0.067,0.032c-0.023,0.013-0.044,0.026-0.067,0.04c-0.021,0.013-0.043,0.024-0.064,0.039
	c-0.025,0.016-0.048,0.035-0.072,0.053c-0.017,0.013-0.034,0.023-0.05,0.037c-0.04,0.033-0.079,0.068-0.115,0.104L11.371,78.572
	c-0.037,0.036-0.071,0.074-0.104,0.115c-0.014,0.017-0.026,0.034-0.039,0.052c-0.018,0.022-0.036,0.046-0.052,0.07
	c-0.015,0.021-0.027,0.044-0.04,0.065c-0.013,0.021-0.026,0.043-0.038,0.064c-0.012,0.023-0.022,0.047-0.034,0.07
	c-0.011,0.023-0.022,0.045-0.032,0.068c-0.009,0.023-0.017,0.047-0.025,0.07c-0.009,0.023-0.019,0.049-0.026,0.073
	s-0.013,0.048-0.019,0.071c-0.006,0.025-0.014,0.051-0.019,0.076c-0.006,0.029-0.009,0.057-0.013,0.086
	c-0.003,0.021-0.008,0.043-0.01,0.065c-0.01,0.103-0.01,0.206,0,0.308c0.002,0.022,0.006,0.045,0.01,0.066
	c0.004,0.028,0.007,0.057,0.013,0.085c0.005,0.025,0.012,0.051,0.019,0.076c0.006,0.024,0.011,0.048,0.019,0.071
	c0.007,0.025,0.017,0.05,0.026,0.074c0.008,0.023,0.016,0.047,0.025,0.07c0.01,0.022,0.021,0.045,0.032,0.067
	c0.011,0.023,0.021,0.048,0.034,0.07c0.012,0.022,0.025,0.043,0.038,0.064c0.013,0.022,0.026,0.044,0.04,0.065
	c0.016,0.024,0.034,0.047,0.052,0.07c0.013,0.018,0.025,0.035,0.039,0.053c0.065,0.08,0.138,0.152,0.218,0.219
	c0.016,0.013,0.033,0.024,0.05,0.037c0.024,0.018,0.048,0.036,0.073,0.053c0.021,0.014,0.042,0.026,0.064,0.039
	c0.022,0.014,0.044,0.027,0.066,0.039c0.022,0.013,0.046,0.022,0.068,0.033c0.023,0.012,0.046,0.022,0.07,0.032
	c0.022,0.009,0.045,0.017,0.068,0.024c0.025,0.01,0.05,0.02,0.076,0.027c0.023,0.007,0.046,0.012,0.069,0.018
	c0.026,0.007,0.052,0.014,0.079,0.02s0.054,0.008,0.082,0.012c0.023,0.004,0.046,0.008,0.069,0.011
	c0.051,0.005,0.103,0.008,0.154,0.008h6.237v6.235c0,0.052,0.002,0.104,0.008,0.154c0.002,0.023,0.006,0.045,0.009,0.066
	c0.004,0.028,0.007,0.057,0.013,0.085c0.005,0.025,0.012,0.051,0.019,0.076c0.006,0.024,0.011,0.048,0.018,0.071
	c0.008,0.025,0.018,0.05,0.026,0.074c0.008,0.023,0.016,0.047,0.025,0.07c0.009,0.023,0.021,0.045,0.031,0.068
	c0.011,0.022,0.021,0.047,0.034,0.069c0.012,0.022,0.025,0.043,0.038,0.064c0.013,0.022,0.025,0.044,0.04,0.065
	c0.016,0.025,0.034,0.048,0.051,0.07c0.013,0.018,0.025,0.036,0.04,0.053c0.065,0.08,0.138,0.152,0.218,0.219
	c0.017,0.013,0.034,0.024,0.05,0.037c0.024,0.018,0.047,0.037,0.072,0.053c0.021,0.015,0.043,0.026,0.064,0.039
	c0.022,0.014,0.043,0.027,0.066,0.039c0.022,0.013,0.045,0.023,0.068,0.033c0.023,0.012,0.046,0.022,0.07,0.033
	c0.022,0.009,0.045,0.016,0.068,0.023c0.025,0.01,0.05,0.02,0.076,0.027c0.023,0.007,0.046,0.012,0.069,0.018
	c0.026,0.007,0.052,0.014,0.079,0.02s0.054,0.009,0.082,0.013c0.023,0.003,0.045,0.008,0.069,0.01
	c0.051,0.005,0.103,0.008,0.154,0.008s0.103-0.003,0.154-0.008c0.023-0.003,0.046-0.007,0.069-0.01
	c0.027-0.004,0.055-0.007,0.082-0.013s0.053-0.013,0.079-0.02c0.023-0.006,0.046-0.011,0.069-0.018
	c0.026-0.008,0.051-0.018,0.076-0.027c0.022-0.008,0.045-0.015,0.068-0.023c0.024-0.011,0.046-0.021,0.07-0.033
	c0.023-0.01,0.046-0.021,0.068-0.033c0.023-0.012,0.044-0.025,0.066-0.039c0.021-0.013,0.043-0.024,0.064-0.039
	c0.025-0.016,0.048-0.035,0.072-0.053c0.017-0.013,0.034-0.024,0.05-0.037c0.04-0.033,0.079-0.068,0.115-0.105l10.913-10.912
	c0.037-0.036,0.071-0.074,0.104-0.115c0.014-0.017,0.026-0.034,0.039-0.052c0.018-0.022,0.036-0.046,0.052-0.07
	c0.015-0.021,0.027-0.044,0.04-0.065c0.013-0.021,0.026-0.043,0.038-0.064c0.012-0.023,0.023-0.047,0.034-0.071
	c0.011-0.022,0.021-0.044,0.031-0.067s0.017-0.047,0.026-0.07c0.009-0.024,0.018-0.049,0.025-0.074
	c0.007-0.023,0.013-0.047,0.019-0.071c0.006-0.025,0.014-0.05,0.019-0.076c0.006-0.028,0.009-0.057,0.013-0.085
	c0.003-0.021,0.007-0.043,0.009-0.065c0.005-0.052,0.008-0.103,0.008-0.155v-7.148l16.468-16.469l39.627,39.627
	c0.706,2.537,1.688,4.573,3.179,6.064c0.884,0.883,2.058,1.37,3.308,1.37c1.249,0,2.424-0.487,3.307-1.37
	c0.884-0.883,1.37-2.058,1.37-3.307C99.999,94.072,99.514,92.898,98.63,92.016z M21.828,80.32l5.78-5.779
	c0.609-0.609,0.609-1.596,0-2.205c-0.609-0.608-1.596-0.608-2.205,0l-5.78,5.78h-3.386l7.796-7.796h5.591v5.591l-7.796,7.796V80.32z
	 M3.118,4.677c0-0.417,0.162-0.808,0.457-1.103c0.294-0.294,0.686-0.457,1.102-0.457S5.485,3.281,5.78,3.575
	c1.88,1.88,7.178,2.533,15.681,3.385c12.093,1.211,28.655,2.871,42.813,11.798c0.403,0.254,0.665,0.672,0.718,1.146
	c0.054,0.474-0.11,0.939-0.446,1.276l-0.397,0.397c-0.407,0.407-0.626,0.96-0.616,1.558c0.01,0.617,0.26,1.201,0.703,1.644
	l4.362,4.363l-2.205,2.205l-4.362-4.363c-1.02-1.019-1.593-2.368-1.615-3.799c-0.009-0.547,0.062-1.084,0.212-1.597
	c0.204-0.701-0.104-1.449-0.743-1.802c-12.938-7.139-27.845-8.633-38.733-9.724C12.574,9.203,6.377,8.583,3.575,5.78
	C3.281,5.485,3.118,5.094,3.118,4.677z M12.958,12.277c2.367,0.336,5,0.6,7.883,0.889c10.33,1.035,24.375,2.442,36.526,8.809
	c-0.055,0.415-0.078,0.836-0.071,1.26c0.036,2.246,0.934,4.36,2.528,5.954l4.363,4.363L49.21,48.529L12.958,12.277z M51.415,50.734
	l14.977-14.978l4.419,4.419c1.632,1.631,3.795,2.53,6.091,2.53c0.378,0,0.755-0.025,1.127-0.074
	c6.399,12.2,7.814,26.298,8.854,36.666c0.285,2.844,0.546,5.441,0.876,7.779L51.415,50.734z M96.426,96.426
	c-0.295,0.294-0.687,0.456-1.104,0.456c-0.416,0-0.808-0.162-1.102-0.456c-2.764-2.764-3.381-8.919-4.235-17.439
	c-1.096-10.924-2.597-25.886-9.771-38.872c-0.28-0.507-0.809-0.805-1.365-0.805c-0.145,0-0.293,0.02-0.438,0.063
	c-0.487,0.143-0.995,0.215-1.51,0.215c-1.463,0-2.843-0.574-3.886-1.617l-4.42-4.419l2.205-2.205l4.42,4.42
	c0.446,0.446,1.061,0.702,1.684,0.702c0.582,0,1.122-0.219,1.52-0.616l0.396-0.397c0.336-0.335,0.805-0.5,1.276-0.447
	c0.474,0.053,0.892,0.314,1.146,0.718c8.963,14.205,10.629,30.819,11.846,42.951c0.847,8.442,1.494,13.7,3.337,15.544
	c0.294,0.294,0.456,0.686,0.456,1.102S96.72,96.131,96.426,96.426z"/>
</svg>
