<?xml version="1.0" encoding="utf-8"?>
<!-- Generator: Adobe Illustrator 16.0.0, SVG Export Plug-In . SVG Version: 6.00 Build 0)  -->
<!DOCTYPE svg PUBLIC "-//W3C//DTD SVG 1.1//EN" "http://www.w3.org/Graphics/SVG/1.1/DTD/svg11.dtd">
<svg version="1.1" id="Layer_1" xmlns="http://www.w3.org/2000/svg" xmlns:xlink="http://www.w3.org/1999/xlink" x="0px" y="0px"
	 width="100px" height="100px" viewBox="0 0 100 100" enable-background="new 0 0 100 100" xml:space="preserve">
<path fill="none" stroke="#FFFFFF" stroke-miterlimit="10" d="M52.439,38.292V25.61c0-1.463,0.975-2.439,2.438-2.439
	s2.438-0.976,2.438-2.439v-4.878c0-1.463-0.975-2.439-2.438-2.439H37.805c-1.463,0-2.439,0.976-2.439,2.439v4.878
	c0,1.463,0.976,2.439,2.439,2.439s2.439,0.976,2.439,2.439v12.927c0,0.732-0.244,1.463-0.732,1.708
	c-4.878,4.146-24.878,16.098-24.878,30.488c0,17.561,14.146,24.39,31.707,24.39s31.708-6.829,31.708-24.39
	c0-13.416-19.512-27.074-24.391-30.488C52.927,39.756,52.439,39.024,52.439,38.292z"/>
<path fill="#FFFFFF" d="M24.634,57.805c-2.927,3.415-5.122,7.561-5.122,11.707c0,14.879,11.951,20.732,26.829,20.732
	c14.878,0,26.83-5.854,26.83-20.732c0-3.902-1.951-7.805-4.634-11.463"/>
<path fill="none" stroke="#FFFFFF" stroke-miterlimit="10" d="M53.658,10.976c0-1.951-1.707-3.659-3.658-3.659h-7.316
	c-1.951,0-3.659,1.708-3.659,3.659v2.439h14.634V10.976z"/>
</svg>
